<svg width="64" height="64" fill="none" xmlns="http://www.w3.org/2000/svg"><g clip-path="url(#clip0)"><path d="M5.058 39.167a1.246 1.246 0 001.767 0l18.92-18.919L37.2 31.703a1.251 1.251 0 001.768 0l6.644-6.644a1.25 1.25 0 10-1.768-1.768l-5.76 5.76L26.63 17.596a1.251 1.251 0 00-1.768 0L5.94 36.516l-2.923-2.924 22.727-22.727L37.2 22.32a1.25 1.25 0 001.767 0L54.063 7.224a1.25 1.25 0 000-1.768l-.46-.46 7.379-1.978-1.977 7.38-.25-.25a1.25 1.25 0 00-1.768 0l-6.073 6.072a1.25 1.25 0 001.768 1.768l5.189-5.189.897.897a1.251 1.251 0 002.091-.56l3.098-11.562a1.25 1.25 0 00-1.53-1.531L50.864 3.14a1.25 1.25 0 00-.56 2.091L51.41 6.34 38.084 19.668 26.63 8.213a1.25 1.25 0 00-1.768 0L.366 32.71a1.25 1.25 0 000 1.768l4.692 4.69z" fill="#E31E25"/><path d="M62.75 61.5H61.5V23.709c0-.69-.56-1.25-1.25-1.25h-7c-.69 0-1.25.56-1.25 1.25v37.79h-2.875V38.626c0-.69-.56-1.25-1.25-1.25h-7c-.69 0-1.25.56-1.25 1.25V61.5H36.75V45.25c0-.69-.56-1.25-1.25-1.25h-7c-.69 0-1.25.56-1.25 1.25V61.5h-2.875V38.625c0-.69-.56-1.25-1.25-1.25h-7c-.69 0-1.25.56-1.25 1.25V61.5H12V50.04c0-.69-.56-1.25-1.25-1.25h-7c-.69 0-1.25.56-1.25 1.25V61.5H1.25a1.25 1.25 0 000 2.5h61.5a1.25 1.25 0 100-2.5zM5 61.5V51.29h4.5V61.5H5zm12.375 0V39.875h4.5V61.5h-4.5zm12.375 0v-15h4.5v15h-4.5zm12.375 0V39.875h4.5V61.5h-4.5zm12.375 0V24.959H59v36.54h-4.5z" fill="#BBB"/><path d="M47.379 19.755a1.26 1.26 0 00-.366.884 1.253 1.253 0 002.134.884c.233-.233.366-.555.366-.884 0-.329-.133-.65-.366-.884a1.26 1.26 0 00-.884-.366c-.33 0-.652.134-.884.366z" fill="#222"/></g><defs><clipPath id="clip0"><path fill="#fff" d="M0 0h64v64H0z"/></clipPath></defs></svg>