<svg width="64" height="64" fill="none" xmlns="http://www.w3.org/2000/svg"><g clip-path="url(#clip0)"><path d="M32 16.655l7.6-6.332h9.948V0H24.774v10.323H32v6.332zm-5.161-8.397V2.065h20.645v6.193h-8.632l-4.787 3.99v-3.99h-7.226z" fill="#E31E25"/><path d="M28.903 4.129h2.065v2.065h-2.065V4.129zm4.129 0h8.258v2.065h-8.258V4.129zm10.323 0h2.064v2.065h-2.064V4.129z" fill="#E31E25"/><path d="M52.547 61.935l-.835-8.356c3.447-.545 6.094-3.53 6.094-7.127v-13.42h-4.129v-1.426a3.713 3.713 0 00-2.01-3.31 6.169 6.169 0 002.01-4.554v-2.065a6.2 6.2 0 00-6.193-6.193 6.2 6.2 0 00-6.194 6.193v2.065c0 2.672 1.705 4.947 4.081 5.814l-5.54 5.54h-5.79c-.115-1.72-1.296-3.22-2.97-3.699l-4.232-1.207v-1.844a6.172 6.172 0 002.064-4.604v-2.065a6.2 6.2 0 00-6.193-6.193 6.2 6.2 0 00-6.194 6.193v2.065c0 1.828.801 3.468 2.065 4.604v1.845l-4.232 1.207a4.145 4.145 0 00-2.994 3.97v3.858h-4.13v6.193H9.29v16.517H0V64h64v-2.065H52.547zM43.355 45.42v-4.733l7.314-7.315a3.234 3.234 0 00.914-1.98c.01.072.03.14.03.215v12.781a3.1 3.1 0 01-3.097 3.097h-8.258V45.42h3.097zm-3.097 8.258h5.26l.825 8.258h-6.085v-8.258zm7.334 0h2.055l.825 8.258h-2.054l-.826-8.258zm6.085-9.29v-9.29h2.065v11.355a5.167 5.167 0 01-5.161 5.16H40.258v-2.064h8.258a5.167 5.167 0 005.161-5.16zM43.355 23.742v-2.065a4.133 4.133 0 014.129-4.129 4.133 4.133 0 014.129 4.13v2.064a4.133 4.133 0 01-4.13 4.129 4.133 4.133 0 01-4.128-4.129zm-2.67 13.42l6.888-6.888a1.159 1.159 0 011.637 1.637l-7.315 7.315H30.968a1.033 1.033 0 010-2.065h9.717zM18.581 21.676a4.133 4.133 0 014.129-4.129 4.133 4.133 0 014.129 4.13v2.064a4.133 4.133 0 01-4.13 4.129 4.133 4.133 0 01-4.128-4.129v-2.065zm4.129 8.259c.724 0 1.417-.133 2.064-.362v1.109c-.256.395-.967 1.317-2.064 1.317-1.098 0-1.809-.922-2.065-1.317v-1.109c.647.23 1.34.361 2.065.361zm-9.29 5.432c0-.917.616-1.733 1.496-1.985l4.253-1.215c.599.78 1.764 1.897 3.54 1.897 1.777 0 2.943-1.116 3.541-1.898l4.253 1.215c.79.226 1.342.914 1.453 1.714h-.988a3.1 3.1 0 00-3.097 3.097c0 .363.074.708.19 1.032H13.419v-3.857zM9.29 41.29h32v2.065h-32V41.29zm2.065 8.258h3.097v-2.064h-3.097v-2.065h26.839v2.065H16.515v2.064h21.678v12.387h-2.46l-2.064-4.129H15.878l-2.065 4.13h-2.458V49.547zm22.071 12.387H16.122l1.032-2.064h15.24l1.032 2.064z" fill="#BBB"/></g><defs><clipPath id="clip0"><path fill="#fff" d="M0 0h64v64H0z"/></clipPath></defs></svg>