<svg width="60" height="64" fill="none" xmlns="http://www.w3.org/2000/svg"><path d="M58.594 43.937l-2.133-2.133c-1.64-1.64-4.138-1.637-5.775 0L36.71 55.779c-.2.2-.312.472-.312.754v6.4c0 .59.478 1.067 1.067 1.067h6.4c.282 0 .554-.113.754-.313l13.975-13.975c1.7-1.7 1.7-4.075 0-5.775zM49.307 46.2l1.691 1.691-9.267 9.267-1.692-1.691 9.268-9.267zM38.53 61.867v-4.892l4.892 4.892H38.53zm6.4-1.509l-1.691-1.691 9.267-9.268 1.692 1.692-9.268 9.267zm12.155-12.154l-1.38 1.379-4.891-4.892 1.38-1.379c.842-.842 1.91-.846 2.758 0l2.133 2.133c.863.864.863 1.896 0 2.759z" fill="#E31E25"/><path d="M44.931 39.467c0-.59-.477-1.067-1.066-1.067h-6.4a1.067 1.067 0 000 2.133h6.4c.589 0 1.066-.477 1.066-1.066zm-4.267-27.734V6.4a1.067 1.067 0 00-2.133 0v5.333a5.34 5.34 0 005.334 5.334h9.6v20.266a1.067 1.067 0 002.133 0V16c0-.589-.478-1.067-1.067-1.067H43.865a3.204 3.204 0 01-3.2-3.2zM43.865 25.6H35.33a1.067 1.067 0 000 2.133h8.534a1.067 1.067 0 000-2.133zm-11.734 1.067c0-.59-.477-1.067-1.066-1.067h-6.4a1.067 1.067 0 000 2.133h6.4c.588 0 1.066-.477 1.066-1.066zM24.665 32a1.067 1.067 0 000 2.133h2.133a1.067 1.067 0 000-2.133h-2.133zm0-10.667H35.33a1.067 1.067 0 000-2.133H24.664a1.067 1.067 0 000 2.133zm6.4 12.8H41.73a1.067 1.067 0 000-2.133H31.065a1.067 1.067 0 000 2.133zm6.4 10.667a1.067 1.067 0 000 2.133h2.133a1.067 1.067 0 000-2.133h-2.133zm-4.267-6.4h-8.534a1.067 1.067 0 000 2.133h8.534a1.067 1.067 0 000-2.133zm0 6.4h-8.534a1.067 1.067 0 000 2.133h8.534a1.067 1.067 0 000-2.133z" fill="#BBB"/><path d="M33.198 61.867H5.465a3.204 3.204 0 01-3.2-3.2V5.333c0-1.764 1.435-3.2 3.2-3.2h33.691l10.355 10.355a1.065 1.065 0 101.508-1.509L40.352.313A1.062 1.062 0 0039.598 0H5.465A5.34 5.34 0 00.13 5.333v53.334A5.34 5.34 0 005.465 64h27.733a1.067 1.067 0 000-2.133z" fill="#BBB"/><path d="M33.198 51.2h-8.534a1.067 1.067 0 000 2.133h8.534a1.067 1.067 0 000-2.133zM19.331 20.267c0-.59-.477-1.067-1.066-1.067h-6.4c-.589 0-1.067.478-1.067 1.067v6.4c0 .588.478 1.066 1.067 1.066h6.4c.588 0 1.066-.478 1.066-1.066v-6.4zM17.198 25.6h-4.267v-4.267h4.267V25.6zm-5.334 27.733h6.4c.59 0 1.067-.477 1.067-1.066v-6.4c0-.589-.478-1.067-1.066-1.067h-6.4c-.59 0-1.067.478-1.067 1.067v6.4c0 .588.478 1.066 1.066 1.066zm1.067-6.4h4.267V51.2H12.93v-4.267z" fill="#BBB"/><path d="M13.244 40.22a1.068 1.068 0 001.641-.161l4.267-6.4a1.068 1.068 0 00-1.775-1.184l-3.544 5.317-1.214-1.213a1.065 1.065 0 10-1.509 1.508l2.134 2.134z" fill="#E31E25"/></svg>