<svg width="64" height="64" fill="none" xmlns="http://www.w3.org/2000/svg"><g clip-path="url(#clip0)"><path d="M30.096 17.09a1.25 1.25 0 00-.93-1.18l-11.92-3.143-.002-.001-4.49-1.184a1.25 1.25 0 00-1.382.553c-1.798 2.916-3.212 6.16-4.09 9.382-1.463 5.378-1.215 9.99.72 13.34 1.119 1.94 2.76 3.362 4.79 4.172L8.196 55.911 1.57 54.163a1.25 1.25 0 00-.637 2.417 227671.784 227671.784 0 0115.652 4.128 1.25 1.25 0 10.637-2.417l-6.607-1.743 4.594-16.878c.45.063.901.095 1.35.095 5.573 0 10.176-4.686 12.313-12.534a36.12 36.12 0 001.225-10.14zm-3.637 9.484c-1.823 6.694-5.524 10.69-9.902 10.69a7.577 7.577 0 01-1.93-.255c-1.927-.508-3.47-1.684-4.46-3.401-1.176-2.037-1.572-4.724-1.183-7.89 1.669.272 3.245.378 4.739.378 2.458 0 4.697-.278 6.78-.535 2.348-.291 4.432-.548 6.285-.316-.101.448-.21.892-.33 1.33zm.785-3.79c-2.216-.3-4.575-.01-7.049.296-3.163.391-6.711.83-10.772.18.082-.358.172-.72.272-1.086a33.71 33.71 0 013.331-7.935l1.987.524c-.36.694-.692 1.407-.951 1.987a1.25 1.25 0 002.283 1.018c.405-.907.8-1.712 1.152-2.35l10.107 2.666a34.025 34.025 0 01-.36 4.7z" fill="#BBB"/><path d="M55.252 58.642h-.002l-7.772 2.05 7.774-2.05zm-7.773 2.05l-.063.016.063-.016z" fill="#E31E25"/><path d="M63.958 55.053a1.25 1.25 0 00-1.527-.89l-6.627 1.748-4.596-16.882c2.03-.81 3.671-2.233 4.79-4.171 1.934-3.35 2.183-7.964.719-13.34-.877-3.223-2.291-6.467-4.089-9.384a1.25 1.25 0 00-1.383-.552l-16.41 4.328a1.25 1.25 0 00-.931 1.18 36.251 36.251 0 001.225 10.141c2.137 7.848 6.74 12.533 12.314 12.534a9.84 9.84 0 001.349-.095l4.595 16.878-6.608 1.743a1.25 1.25 0 10.637 2.417l7.834-2.066 7.819-2.062a1.25 1.25 0 00.89-1.527zm-27.562-36.97l14.577-3.844a33.706 33.706 0 013.332 7.935c.213.785.386 1.548.52 2.288a16.774 16.774 0 00-2.325-.055 35.323 35.323 0 00-.5-2.61 1.25 1.25 0 00-2.438.555c.19.834.339 1.603.44 2.261-.565.065-1.138.137-1.716.211-3.245.414-6.899.88-11.14.123a33.871 33.871 0 01-.75-6.864zm11.048 19.182c-4.153 0-7.696-3.598-9.605-9.68 1.394.192 2.72.27 3.983.27 2.466 0 4.702-.286 6.78-.551 2.451-.313 4.61-.588 6.531-.286.146 2.604-.289 4.838-1.3 6.59-.991 1.717-2.533 2.893-4.46 3.4a7.561 7.561 0 01-1.93.257z" fill="#E31E25"/><path d="M32 3.25c-.69 0-1.25.56-1.25 1.25v3.26a1.25 1.25 0 002.5 0V4.5c0-.69-.56-1.25-1.25-1.25z" fill="#BBB"/><path d="M27.953 9.38l-1.656-2.823a1.25 1.25 0 10-2.157 1.265l1.657 2.823a1.25 1.25 0 102.156-1.265zm11.461-3.269a1.25 1.25 0 00-1.71.446L36.046 9.38a1.25 1.25 0 102.156 1.265l1.657-2.823a1.25 1.25 0 00-.446-1.711zM51.07 18.342z" fill="#E31E25"/><path d="M13.75 21.75a1.25 1.25 0 100-2.5 1.25 1.25 0 000 2.5z" fill="#BBB"/></g><defs><clipPath id="clip0"><path fill="#fff" d="M0 0h64v64H0z"/></clipPath></defs></svg>