<svg width="65" height="65" fill="none" xmlns="http://www.w3.org/2000/svg"><g clip-path="url(#clip0)"><path d="M61.715.001H46.594a3.288 3.288 0 00-3.285 3.284V12.1H27.808a.965.965 0 100 1.93h15.501v16.265a3.288 3.288 0 003.285 3.284h8.845v12.583H1.931V17.823a3.798 3.798 0 013.793-3.793h18.865a.966.966 0 100-1.93H5.724A5.73 5.73 0 000 17.822v29.87a5.782 5.782 0 005.775 5.774h12.037l-1.072 4.487h-2.254a4.544 4.544 0 00-4.54 4.538v1.525c0 .533.433.965.966.965h26.29a.965.965 0 100-1.93H11.877v-.56a2.611 2.611 0 012.609-2.607h28.398a2.611 2.611 0 012.609 2.608v.558H40.42a.965.965 0 100 1.931h6.038a.965.965 0 00.965-.965v-1.524a4.544 4.544 0 00-4.539-4.54H40.63l-1.071-4.486h12.036a5.782 5.782 0 005.775-5.775V33.578h4.346A3.288 3.288 0 0065 30.294V3.285A3.289 3.289 0 0061.715.001zm-23.07 57.953h-19.92l1.071-4.487h17.778l1.07 4.487zm12.95-6.417H5.775a3.85 3.85 0 01-3.824-3.446H55.42a3.85 3.85 0 01-3.824 3.446zM46.594 1.932h15.121c.747 0 1.354.607 1.354 1.353V4.82H45.24V3.285c0-.746.607-1.353 1.354-1.353zM63.069 26.83H45.24V6.75h17.83v20.08zm-1.354 4.818H46.594a1.356 1.356 0 01-1.354-1.353V28.76h17.829v1.535c0 .746-.607 1.353-1.354 1.353z" fill="#fff"/><path d="M47.95 12.02h5.598a.966.966 0 100-1.931H47.95a.965.965 0 100 1.93zm0 4.476h9.46a.965.965 0 100-1.931h-9.46a.965.965 0 000 1.93zm0 4.476h12.355a.966.966 0 000-1.93H47.95a.965.965 0 100 1.93z" fill="#fff"/><path d="M6.192 20.517h5.598a.966.966 0 000-1.93H6.192a.965.965 0 100 1.93zm0 4.476h9.46a.965.965 0 100-1.93h-9.46a.965.965 0 000 1.93zm0 4.477h12.356a.965.965 0 000-1.93H6.192a.965.965 0 100 1.93zm19.182-.371l4.827 15.252c.126.4.497.673.917.674h.003c.418 0 .79-.27.918-.668l2.146-6.615 6.6-1.426a.965.965 0 00.2-1.821L26.696 27.93a.966.966 0 00-1.323 1.169zm12.173 5.941l-4.313.933a.965.965 0 00-.715.645l-1.387 4.278-3.26-10.3 9.675 4.444z" fill="#E31E25"/></g><defs><clipPath id="clip0"><path fill="#fff" d="M0 0h65v65H0z"/></clipPath></defs></svg>