<svg width="64" height="64" fill="none" xmlns="http://www.w3.org/2000/svg"><path d="M32 9.481c-11.11 0-20.148 9.039-20.148 20.149a20.101 20.101 0 0013.037 18.844v10.785c0 .656.53 1.185 1.185 1.185h1.185v2.37c0 .656.53 1.186 1.185 1.186h7.112c.655 0 1.185-.53 1.185-1.185v-2.37h1.185c.655 0 1.185-.53 1.185-1.186V48.474A20.101 20.101 0 0052.148 29.63C52.148 18.52 43.11 9.48 32 9.48zm3.556 48.593c-.656 0-1.186.53-1.186 1.185v2.37h-4.74v-2.37c0-.655-.53-1.185-1.186-1.185H27.26v-5.926h9.482v5.926h-1.185zm2-11.565c-.487.16-.815.615-.815 1.126v2.143h-9.482v-2.143c0-.512-.328-.966-.815-1.126a17.738 17.738 0 01-12.222-16.88c0-9.802 7.975-17.777 17.778-17.777 9.803 0 17.778 7.975 17.778 17.778a17.738 17.738 0 01-12.222 16.879z" fill="#BBB"/><path d="M32 7.111c.655 0 1.185-.53 1.185-1.185v-4.74a1.184 1.184 0 10-2.37 0v4.74c0 .655.53 1.185 1.185 1.185zm28.444 21.333h-4.74a1.184 1.184 0 100 2.37h4.74a1.184 1.184 0 100-2.37zm-52.148 0h-4.74a1.184 1.184 0 100 2.37h4.74a1.184 1.184 0 100-2.37zm42.98-19.766l-3.352 3.352a1.184 1.184 0 101.676 1.676l3.352-3.352a1.184 1.184 0 10-1.676-1.676zM14.4 45.554l-3.352 3.352a1.184 1.184 0 101.676 1.675l3.352-3.351a1.184 1.184 0 10-1.676-1.676zm35.2 0a1.184 1.184 0 10-1.676 1.676l3.352 3.351a1.182 1.182 0 001.676 0 1.184 1.184 0 000-1.675L49.6 45.554zM14.4 13.705a1.182 1.182 0 001.676 0 1.184 1.184 0 000-1.675l-3.352-3.352a1.184 1.184 0 10-1.676 1.676l3.352 3.351zM32 15.408c-7.842 0-14.222 6.38-14.222 14.222a1.184 1.184 0 102.37 0c0-6.535 5.317-11.852 11.852-11.852a1.184 1.184 0 100-2.37z" fill="#E31E25"/></svg>