<svg width="50" height="50" fill="none" xmlns="http://www.w3.org/2000/svg"><path d="M31.006 2.473H19.112a3.336 3.336 0 00-3.332 3.332v1.53a.977.977 0 101.953 0v-1.53c0-.76.619-1.379 1.38-1.379h11.893c.76 0 1.379.619 1.379 1.379v1.53a.977.977 0 101.953 0v-1.53a3.335 3.335 0 00-3.332-3.332zm14.226 7.89H4.768A4.773 4.773 0 000 15.131v8.672c0 .433.285.814.7.936l.595.176v20.458c0 1.188.967 2.154 2.155 2.154h43.1a2.157 2.157 0 002.155-2.154V25.059l.59-.17A.977.977 0 0050 23.95v-8.82a4.773 4.773 0 00-4.768-4.767zM8.714 45.573H3.45a.201.201 0 01-.201-.2v-5.265h2.808a2.66 2.66 0 012.657 2.657v2.809zm38.037-.2a.2.2 0 01-.2.2h-5.266v-2.808a2.66 2.66 0 012.658-2.657h2.808v5.265zm0-7.218h-2.808a4.616 4.616 0 00-4.61 4.61v2.809H10.668v-2.809a4.616 4.616 0 00-4.61-4.61h-2.81V25.49l17.243 5.085v3.138c0 .54.437.977.976.977h7.066c.54 0 .976-.437.976-.977v-3.112l17.243-4.98v12.533zm-24.307-5.417v-4.759h5.112v4.759h-5.112zm25.603-9.522l-18.538 5.353v-1.567a.977.977 0 00-.976-.977h-7.066a.977.977 0 00-.976.977v1.538L1.953 23.073V15.13a2.818 2.818 0 012.815-2.815h3.946v3.38a.977.977 0 101.954 0v-3.38h28.311v3.38a.977.977 0 101.953 0v-3.38h4.3a2.818 2.818 0 012.815 2.815v8.085z" fill="#BBB"/><path d="M39.956 20.441a.977.977 0 100-1.953.977.977 0 000 1.953zm-30.266 0a.977.977 0 100-1.953.977.977 0 000 1.953z" fill="#BBB"/></svg>