<svg width="50" height="50" fill="none" xmlns="http://www.w3.org/2000/svg"><path d="M47.695 48.047h-2.142v-31.1a2.628 2.628 0 00-2.625-2.625h-4.787a2.628 2.628 0 00-2.626 2.625v31.1h-5.438v-17.01a2.628 2.628 0 00-2.626-2.625h-4.787a2.628 2.628 0 00-2.625 2.626v17.009H14.6v-8.81a2.628 2.628 0 00-2.625-2.624H7.187a2.628 2.628 0 00-2.625 2.625v8.809H2.305a.977.977 0 100 1.953h45.39a.977.977 0 100-1.953zm-35.048 0H6.515v-8.81c0-.37.302-.671.672-.671h4.788c.37 0 .672.301.672.672v8.809zm15.476 0h-6.131v-17.01c0-.37.301-.671.672-.671h4.787c.37 0 .672.301.672.672v17.009zm15.477 0h-6.132v-31.1c0-.37.302-.672.672-.672h4.788c.37 0 .672.301.672.672v31.1zm1.95-47.02A.973.973 0 0044.526.002L44.478 0H38.57a.977.977 0 100 1.953h3.648l-9.654 9.654-3.64-3.64a.977.977 0 00-1.381 0L9.987 25.522a.977.977 0 001.381 1.381l16.865-16.865 3.64 3.64a.977.977 0 001.382 0L43.6 3.335v3.302a.977.977 0 101.953 0V1.074c0-.016-.002-.031-.003-.047zM7.387 30.597a.977.977 0 100-1.953.977.977 0 000 1.953z" fill="#BBB"/></svg>