<svg width="50" height="50" fill="none" xmlns="http://www.w3.org/2000/svg"><path d="M24.914 32.8a.977.977 0 00-.977.977v12.082a.977.977 0 101.954 0V33.776a.977.977 0 00-.977-.976z" fill="#BBB"/><path d="M28.104 13.451a4.904 4.904 0 001.473-3.506 4.925 4.925 0 00-4.92-4.92 4.925 4.925 0 00-4.919 4.92 4.91 4.91 0 001.618 3.644c-3.449 1.37-5.885 4.667-5.885 8.51v7.852c0 2.37 1.862 4.323 4.233 4.54v11.368a.977.977 0 101.953 0V22.371a.977.977 0 00-1.953 0v10.153c-1.291-.202-2.28-1.279-2.28-2.573v-7.852c0-3.99 3.36-7.235 7.49-7.235 4.13 0 7.49 3.246 7.49 7.235v7.852c0 1.248-.92 2.294-2.144 2.548V22.371a.977.977 0 00-1.953 0V45.86a.977.977 0 101.953 0V34.477c2.306-.278 4.097-2.201 4.097-4.525V22.1c0-3.978-2.611-7.372-6.253-8.648zm-3.446-.54a2.97 2.97 0 01-2.967-2.966 2.97 2.97 0 012.967-2.967 2.97 2.97 0 012.966 2.967 2.97 2.97 0 01-2.966 2.966zm18.394-8.692l-4.679-1.032a.976.976 0 10-.42 1.907l2.365.522-3.708 2.35a.977.977 0 001.046 1.65l3.727-2.362-.52 2.356a.976.976 0 101.907.42l1.025-4.647a.976.976 0 00-.743-1.164zm-9.047 7.531a.977.977 0 100-1.952.977.977 0 000 1.953zM44.94 41.568l-1.025-4.647a.976.976 0 10-1.907.42l.52 2.356-3.728-2.362a.976.976 0 10-1.045 1.65l3.708 2.35-2.366.522a.977.977 0 10.42 1.907l4.68-1.032a.976.976 0 00.743-1.164zm-9.79-4.415a.976.976 0 100-1.953.976.976 0 000 1.953zm14.56-14.138l-3.401-3.373a.977.977 0 00-1.376 1.386l1.72 1.706-4.39.004a.977.977 0 000 1.953h.002l4.412-.004-1.699 1.714a.977.977 0 001.387 1.375l3.351-3.38a.977.977 0 00-.005-1.38zm-11.15 1.679a.977.977 0 100-1.953.977.977 0 000 1.953zM13.39 7.967l-3.708-2.35 2.366-.523a.976.976 0 10-.421-1.907L6.948 4.22a.976.976 0 00-.743 1.164L7.23 10.03a.977.977 0 001.907-.42l-.52-2.357 3.727 2.363a.976.976 0 101.046-1.65zm2.605 3.783a.977.977 0 100-1.952.977.977 0 000 1.953zm-3.449 25.887a.977.977 0 00-1.347-.302l-3.727 2.362.52-2.356a.976.976 0 10-1.908-.42L5.06 41.568a.976.976 0 00.744 1.164l4.678 1.032a.977.977 0 00.42-1.907l-2.365-.522 3.709-2.35a.976.976 0 00.302-1.348zm2.304-.484a.976.976 0 100-1.953.976.976 0 000 1.953zM7.737 22.738l-4.39-.004 1.719-1.706a.977.977 0 00-1.375-1.386L.289 23.015a.977.977 0 00-.006 1.382l3.352 3.379a.973.973 0 001.38.006.977.977 0 00.006-1.381l-1.699-1.714 4.413.004a.977.977 0 00.002-1.953zm3.703 1.956a.976.976 0 100-1.952.976.976 0 000 1.952z" fill="#BBB"/></svg>