<svg width="50" height="50" fill="none" xmlns="http://www.w3.org/2000/svg"><path d="M44.592 19.708a.977.977 0 100-1.953.977.977 0 000 1.953zm-25.825 5.67a.977.977 0 100-1.953.977.977 0 000 1.953z" fill="#BBB"/><path d="M47.09 7.658h-7.594a5.695 5.695 0 00-5.6-4.71 5.695 5.695 0 00-5.602 4.71H20.7a2.913 2.913 0 00-2.91 2.909v4.918h-5.434c.537-.756.855-1.68.855-2.676A4.634 4.634 0 008.582 8.18a4.634 4.634 0 00-4.63 4.63c0 1.316.555 2.505 1.44 3.35C2.228 17.462 0 20.516 0 24.066v7.273c0 2.211 1.72 4.037 3.921 4.27v9.49H1.478a.977.977 0 000 1.953h46.624a.977.977 0 000-1.954h-7.338l-2.798-8.337h9.125A2.913 2.913 0 0050 33.852V10.567a2.913 2.913 0 00-2.91-2.91zM33.896 4.9A3.74 3.74 0 0137.5 7.658h-7.208A3.74 3.74 0 0133.895 4.9zM8.582 10.133a2.68 2.68 0 012.676 2.676c0 1.476-1.2 2.676-2.676 2.676a2.679 2.679 0 01-2.676-2.676 2.68 2.68 0 012.676-2.676zM11.89 20.56V45.1H9.86V34.12a.977.977 0 00-1.953 0V45.1H5.874V24.32a.977.977 0 10-1.953 0v9.32c-1.12-.215-1.968-1.164-1.968-2.3v-7.272c0-3.655 3.08-6.629 6.866-6.629h17.947a3.127 3.127 0 01-2.966 2.145H12.867a.977.977 0 00-.977.977zM38.704 45.1h-8.967l2.798-8.338h3.37l2.799 8.337zm9.343-11.248a.957.957 0 01-.956.957H20.699a.957.957 0 01-.956-.957V28.14a.977.977 0 00-1.953 0v5.713a2.913 2.913 0 002.91 2.91h9.775L27.676 45.1H13.843V21.536H23.8a5.08 5.08 0 005.075-5.075.977.977 0 00-.976-.976h-8.155v-4.918c0-.527.428-.956.956-.956h26.39c.528 0 .957.429.957.956v23.285z" fill="#BBB"/><path d="M42.298 21.024a.977.977 0 00-1.38 0l-4.184 4.183-1.525-1.525a.977.977 0 00-1.382 0l-5.392 5.392-1.506-1.506a.977.977 0 00-1.38 0l-2.802 2.801a.977.977 0 001.381 1.381l2.11-2.11 1.507 1.505a.977.977 0 001.381 0l5.392-5.392 1.526 1.526a.977.977 0 001.38 0l4.874-4.873a.977.977 0 000-1.382z" fill="#BBB"/></svg>