<svg width="50" height="50" fill="none" xmlns="http://www.w3.org/2000/svg"><path fill-rule="evenodd" clip-rule="evenodd" d="M41.41 9.78c0-.01 0-.02-.002-.032a.982.982 0 00-.015-.125 1.036 1.036 0 00-.034-.122l-.01-.03a1.055 1.055 0 00-.049-.11l-.003-.006a.966.966 0 00-.067-.107c-.006-.01-.013-.018-.02-.026a.983.983 0 00-.084-.099L32.289.286a.989.989 0 00-.099-.085l-.026-.019a.934.934 0 00-.107-.067L32.05.11a1.023 1.023 0 00-.26-.092h-.001a1.035 1.035 0 00-.125-.016l-.032-.001L31.598 0H9.473a.976.976 0 00-.977.977v41.799c0 .539.437.976.977.976h14.702v5.271a.977.977 0 001.496.828l3.72-2.334 3.719 2.334a.978.978 0 001.495-.828v-5.27h5.83c.54 0 .976-.438.976-.977V9.814l-.001-.034zm-8.835-6.446l5.502 5.503h-5.502V3.334zm-8.882 26.83c-.068-.187-.18-.492-.183-.617.077-.095.341-.262.503-.364.348-.22.743-.47 1.029-.86.289-.393.406-.849.51-1.25.045-.175.119-.459.181-.566.034-.007.107-.017.242-.017.109 0 .23.006.36.012.147.007.3.015.46.015.351 0 .635-.04.892-.125.45-.15.81-.44 1.127-.695.176-.141.47-.378.572-.392.111.014.405.25.58.392.318.256.678.545 1.128.695.257.085.54.125.893.125.159 0 .312-.008.46-.015.128-.006.25-.012.359-.012.135 0 .207.01.242.017.062.107.136.39.18.566.104.401.222.857.511 1.25.286.39.68.64 1.029.86.161.102.426.27.502.364-.002.125-.114.43-.183.616-.145.396-.31.844-.31 1.341s.165.946.31 1.342c.069.187.18.491.183.616-.076.095-.34.262-.503.364-.348.22-.742.47-1.028.86-.289.394-.407.849-.51 1.25-.045.175-.119.459-.181.566a1.23 1.23 0 01-.242.017c-.11 0-.23-.006-.36-.012-.147-.007-.3-.015-.46-.015-.352 0-.635.04-.892.126-.45.15-.81.439-1.128.694-.172.14-.46.371-.576.392-.114-.02-.402-.252-.575-.392-.318-.255-.678-.545-1.128-.694a2.77 2.77 0 00-.893-.126c-.159 0-.312.008-.46.015-.128.006-.25.013-.359.013-.135 0-.207-.01-.242-.018-.062-.107-.136-.39-.181-.566-.103-.401-.221-.856-.51-1.25-.286-.39-.68-.64-1.029-.86-.161-.102-.426-.27-.502-.364.002-.124.114-.43.182-.616.146-.396.31-.844.31-1.341 0-.498-.165-.946-.31-1.342zm8.96 17.094l-2.743-1.72a.979.979 0 00-1.039 0l-2.743 1.72V38.47c.104-.003.206-.007.305-.012a6.92 6.92 0 01.361-.013c.174 0 .248.016.276.025.116.04.34.22.52.364.456.367 1.023.823 1.8.823.778 0 1.345-.456 1.8-.823.18-.145.404-.325.52-.363a.96.96 0 01.276-.026c.11 0 .232.006.362.013.099.005.2.009.304.012v8.788zm1.952-5.459v-4.116c.29-.395.412-.862.515-1.258.053-.209.127-.494.194-.585.067-.091.315-.248.496-.363.481-.303 1.08-.681 1.317-1.396.235-.706-.01-1.372-.206-1.908-.09-.243-.19-.518-.19-.669 0-.15.1-.425.19-.668.196-.536.44-1.203.206-1.908-.238-.715-.836-1.093-1.317-1.396-.18-.115-.43-.272-.496-.363-.067-.091-.14-.376-.194-.584-.14-.544-.316-1.22-.914-1.66-.476-.348-1.027-.389-1.4-.389-.158 0-.31.008-.458.016-.13.006-.252.012-.361.012a.962.962 0 01-.277-.025c-.116-.039-.34-.219-.519-.364-.456-.366-1.023-.823-1.8-.823-.778 0-1.345.457-1.801.823-.18.145-.404.325-.52.364a.964.964 0 01-.276.025 7.03 7.03 0 01-.361-.013 9.583 9.583 0 00-.458-.014c-.373 0-.924.04-1.4.389-.598.438-.774 1.115-.914 1.659-.054.208-.127.493-.194.584-.067.091-.316.248-.497.363-.48.303-1.078.681-1.316 1.396-.235.706.01 1.372.206 1.908.089.243.19.518.19.668 0 .15-.101.426-.19.67-.197.535-.441 1.202-.206 1.907.238.715.836 1.093 1.316 1.396.182.115.43.272.497.363.067.091.14.376.194.585.103.396.224.864.515 1.258v4.116H10.449V1.953h20.173v7.86c0 .54.437.977.976.977h7.86V41.8h-4.853z" fill="#BBB"/><path fill-rule="evenodd" clip-rule="evenodd" d="M14.244 10.79h12.582a.977.977 0 000-1.953H14.244a.976.976 0 100 1.953zm21.528 2.977H14.244a.976.976 0 100 1.953h21.528a.977.977 0 100-1.954zm-3.906 4.929H14.244a.977.977 0 000 1.953h17.622a.976.976 0 100-1.953zm3.907 0a.978.978 0 00-.977.976c0 .538.439.977.977.977a.978.978 0 00.976-.977.978.978 0 00-.977-.976z" fill="#BBB"/></svg>