<svg width="50" height="50" fill="none" xmlns="http://www.w3.org/2000/svg"><path d="M16.155.355a4.2 4.2 0 00-4.196 4.196 4.2 4.2 0 004.196 4.195 4.2 4.2 0 004.195-4.195A4.2 4.2 0 0016.155.355zm0 6.438a2.245 2.245 0 01-2.243-2.242 2.245 2.245 0 012.243-2.243 2.245 2.245 0 012.242 2.243 2.245 2.245 0 01-2.242 2.242zM35.18.355a4.2 4.2 0 00-4.196 4.196 4.2 4.2 0 004.196 4.195 4.2 4.2 0 004.196-4.195A4.2 4.2 0 0035.18.355zm0 6.438a2.245 2.245 0 01-2.242-2.242 2.245 2.245 0 012.242-2.243 2.245 2.245 0 012.242 2.243 2.245 2.245 0 01-2.242 2.242z" fill="#BBB"/><path d="M49.023 47.691H44.02l-.045-20.919a.976.976 0 00-.977-.974h-.002a.977.977 0 00-.974.979l.044 20.914h-6.062l-.045-22.855a.97.97 0 00-.016-.171V23.56c0-.968-.147-1.916-.435-2.83a7.046 7.046 0 013.404-.875h.016a6.99 6.99 0 014.886 1.955c1.302 1.256 2.02 2.927 2.024 4.705l.016 4.362a.977.977 0 00.977.973h.003a.977.977 0 00.973-.98l-.015-4.36c-.005-2.31-.936-4.479-2.62-6.105a8.87 8.87 0 00-3.165-1.969 4.618 4.618 0 001.307-3.241 4.656 4.656 0 00-4.65-4.64h-.01a4.656 4.656 0 00-4.641 4.66 4.62 4.62 0 001.37 3.285c.028.03.058.056.087.084a9.04 9.04 0 00-.74.347 9.799 9.799 0 00-5.439-4.49 5.128 5.128 0 001.601-3.724 5.149 5.149 0 00-5.143-5.143 5.149 5.149 0 00-5.143 5.143c0 1.54.68 2.922 1.755 3.865a9.795 9.795 0 00-5.037 4.324 8.92 8.92 0 00-1.055-.462 4.634 4.634 0 001.318-3.24 4.656 4.656 0 00-4.65-4.65 4.656 4.656 0 00-4.65 4.65c0 1.327.558 2.524 1.452 3.372-3.187 1.31-5.429 4.38-5.429 7.953v4.361a.977.977 0 001.953 0v-4.361c0-3.68 3.1-6.674 6.912-6.674 1.19 0 2.34.29 3.366.846a9.372 9.372 0 00-.444 2.86V47.69h-5.89V26.783a.977.977 0 10-1.953 0v20.908H.977a.977.977 0 000 1.954h48.046a.977.977 0 100-1.954zM38.657 12.508h.006A2.7 2.7 0 0141.36 15.2a2.68 2.68 0 01-.786 1.91 2.68 2.68 0 01-1.906.793h-.006a2.68 2.68 0 01-1.903-.786 2.68 2.68 0 01-.794-1.905 2.7 2.7 0 012.692-2.704zm-25.721 5.395a2.7 2.7 0 01-2.698-2.698 2.7 2.7 0 012.698-2.697 2.7 2.7 0 012.697 2.697 2.7 2.7 0 01-2.697 2.698zM25.748 7.527a3.194 3.194 0 013.19 3.19c0 1.76-1.431 3.19-3.19 3.19a3.194 3.194 0 01-3.19-3.19 3.194 3.194 0 013.19-3.19zm-5.18 40.164h-2.52V35.666c.715.524 1.58.861 2.52.938V47.69zm10.068-24.819a.977.977 0 00-.976.977V47.69h-2.81V35.9a.977.977 0 00-1.953 0v11.79h-2.376V23.85a.977.977 0 00-1.953 0v10.79c-1.422-.192-2.52-1.367-2.52-2.784V23.56a7.431 7.431 0 01.584-2.898c1.228-2.917 4.127-4.801 7.386-4.801 3.275 0 6.179 1.897 7.4 4.834.378.911.57 1.875.57 2.865v8.297c0 1.369-1.025 2.511-2.376 2.76V23.85a.977.977 0 00-.977-.977zm.977 24.82V36.59c.901-.1 1.728-.44 2.413-.953l.024 12.054h-2.437z" fill="#BBB"/><path d="M46.83 35.69a.977.977 0 100-1.953.977.977 0 000 1.953zm-41.545 0a.977.977 0 100-1.953.977.977 0 000 1.953z" fill="#BBB"/></svg>