<svg width="65" height="65" viewBox="0 0 65 65" fill="none" xmlns="http://www.w3.org/2000/svg">
<g clip-path="url(#clip0)">
<path d="M61.7153 0.00100708H46.5936C44.7825 0.00100708 43.3092 1.47435 43.3092 3.28541V12.0992H27.8076C27.274 12.0992 26.842 12.5311 26.842 13.0642C26.842 13.5973 27.274 14.0298 27.8076 14.0298H43.3092V30.2936C43.3092 32.1046 44.7825 33.578 46.5936 33.578H55.4391V46.1607H1.93057V17.823C1.93057 15.7312 3.63253 14.0298 5.72378 14.0298H24.5891C25.1227 14.0298 25.5547 13.5973 25.5547 13.0642C25.5547 12.5311 25.1227 12.0992 24.5891 12.0992H5.72378C2.56781 12.0992 0 14.6665 0 17.823V47.6921C0 50.8768 2.59063 53.4674 5.77535 53.4674H17.8116L16.7404 57.9539H14.486C11.9831 57.9539 9.94694 59.9896 9.94694 62.4925V64.0169C9.94694 64.55 10.3789 64.9824 10.9125 64.9824H37.2021C37.7357 64.9824 38.1676 64.55 38.1676 64.0169C38.1676 63.4838 37.7357 63.0513 37.2021 63.0513H11.8775V62.4925C11.8775 61.0543 13.0479 59.8845 14.486 59.8845H42.8842C44.3223 59.8845 45.4927 61.0543 45.4927 62.4925V63.0513H40.4205C39.8869 63.0513 39.455 63.4838 39.455 64.0169C39.455 64.55 39.8869 64.9824 40.4205 64.9824H46.4577C46.9913 64.9824 47.4232 64.55 47.4232 64.0169V62.4925C47.4232 59.9896 45.3871 57.9539 42.8842 57.9539H40.6298L39.5586 53.4674H51.5948C54.7791 53.4674 57.3702 50.8768 57.3702 47.6921V33.578H61.7158C63.5264 33.578 65.0002 32.1046 65.0002 30.2936V3.28541C64.9997 1.47435 63.5264 0.00100708 61.7153 0.00100708V0.00100708ZM38.6447 57.9539H18.725L19.7962 53.4674H37.5735L38.6447 57.9539ZM51.5948 51.5368H5.77535C3.79023 51.5368 2.15175 50.0243 1.9514 48.0913H55.4188C55.2184 50.0243 53.58 51.5368 51.5948 51.5368ZM46.5936 1.93208H61.7153C62.4617 1.93208 63.0692 2.53907 63.0692 3.28541V4.81975H45.2403V3.28541C45.2403 2.53907 45.8473 1.93208 46.5936 1.93208ZM63.0692 26.8287H45.2403V6.75032H63.0692V26.8287ZM61.7153 31.6474H56.417C56.4131 31.6474 56.4086 31.6464 56.4047 31.6464C56.4002 31.6464 56.3962 31.6474 56.3923 31.6474H46.5936C45.8473 31.6474 45.2398 31.0399 45.2398 30.2936V28.7593H63.0687V30.2936C63.0692 31.0399 62.4617 31.6474 61.7153 31.6474Z" fill="white"/>
<path d="M47.9494 12.0195H53.5482C54.0818 12.0195 54.5138 11.587 54.5138 11.0539C54.5138 10.5208 54.0818 10.0889 53.5482 10.0889H47.9494C47.4163 10.0889 46.9844 10.5208 46.9844 11.0539C46.9844 11.587 47.4163 12.0195 47.9494 12.0195Z" fill="white"/>
<path d="M47.9494 16.4956H57.4094C57.943 16.4956 58.3749 16.0636 58.3749 15.5305C58.3749 14.9974 57.943 14.565 57.4094 14.565H47.9494C47.4163 14.565 46.9844 14.9974 46.9844 15.5305C46.9844 16.0636 47.4163 16.4956 47.9494 16.4956Z" fill="white"/>
<path d="M47.9494 20.9721H60.3055C60.8386 20.9721 61.2711 20.5397 61.2711 20.0066C61.2711 19.4735 60.8386 19.0415 60.3055 19.0415H47.9494C47.4163 19.0415 46.9844 19.4735 46.9844 20.0066C46.9844 20.5397 47.4163 20.9721 47.9494 20.9721Z" fill="white"/>
<path d="M6.1916 20.5173H11.7904C12.3235 20.5173 12.756 20.0849 12.756 19.5518C12.756 19.0187 12.3235 18.5867 11.7904 18.5867H6.1916C5.6585 18.5867 5.22656 19.0187 5.22656 19.5518C5.22656 20.0849 5.6585 20.5173 6.1916 20.5173Z" fill="#E31E25"/>
<path d="M6.1916 24.9934H15.6516C16.1847 24.9934 16.6171 24.5615 16.6171 24.0284C16.6171 23.4953 16.1847 23.0628 15.6516 23.0628H6.1916C5.6585 23.0628 5.22656 23.4953 5.22656 24.0284C5.22656 24.5615 5.6585 24.9934 6.1916 24.9934Z" fill="#E31E25"/>
<path d="M6.1916 29.47H18.5477C19.0808 29.47 19.5128 29.0375 19.5128 28.5044C19.5128 27.9713 19.0808 27.5394 18.5477 27.5394H6.1916C5.6585 27.5394 5.22656 27.9713 5.22656 28.5044C5.22656 29.0375 5.6585 29.47 6.1916 29.47Z" fill="#E31E25"/>
<path d="M25.3743 29.099L30.201 44.3508C30.3274 44.751 30.6979 45.0237 31.1179 45.0247H31.1209C31.5394 45.0247 31.9104 44.7554 32.0393 44.3572L34.1846 37.7423L40.7852 36.3155C41.1913 36.2278 41.4953 35.8896 41.5405 35.4765C41.5861 35.0639 41.3614 34.6681 40.9841 34.4946L26.6974 27.9302C26.3512 27.771 25.9421 27.831 25.6554 28.0839C25.3693 28.3368 25.2587 28.7346 25.3743 29.099ZM37.5469 35.0401L33.234 35.9729C32.8977 36.0453 32.6255 36.2912 32.5193 36.6185L31.1323 40.8958L27.8727 30.5952L37.5469 35.0401Z" fill="#E31E25"/>
</g>
<defs>
<clipPath id="clip0">
<rect width="65" height="65" fill="white"/>
</clipPath>
</defs>
</svg>
