<svg width="50" height="50" viewBox="0 0 50 50" fill="none" xmlns="http://www.w3.org/2000/svg">
<path d="M24.9141 32.7999C24.3747 32.7999 23.9375 33.2371 23.9375 33.7765V45.8594C23.9375 46.3988 24.3747 46.836 24.9141 46.836C25.4534 46.836 25.8906 46.3988 25.8906 45.8594V33.7765C25.8906 33.2372 25.4534 32.7999 24.9141 32.7999Z" fill="#BBBBBB"/>
<path d="M28.104 13.4514C29.0126 12.5583 29.5774 11.3166 29.5774 9.94478C29.5774 7.23208 27.3705 5.02515 24.6578 5.02515C21.9451 5.02515 19.7381 7.23208 19.7381 9.94478C19.7381 11.388 20.3629 12.688 21.3561 13.5888C17.9075 14.9584 15.4707 18.2565 15.4707 22.0985V29.9505C15.4707 32.3208 17.3328 34.2738 19.704 34.4909V45.8594C19.704 46.3988 20.1412 46.836 20.6806 46.836C21.2199 46.836 21.6571 46.3988 21.6571 45.8594V22.3715C21.6571 21.8322 21.2199 21.395 20.6806 21.395C20.1412 21.395 19.704 21.8322 19.704 22.3715V32.524C18.4127 32.3218 17.4238 31.2451 17.4238 29.9505V22.0985C17.4238 18.1096 20.7838 14.8645 24.9139 14.8645C29.0439 14.8645 32.4039 18.1096 32.4039 22.0985V29.9505C32.4039 31.199 31.4841 32.2449 30.2603 32.4992V22.3715C30.2603 21.8322 29.8231 21.395 29.2838 21.395C28.7444 21.395 28.3072 21.8322 28.3072 22.3715V45.8595C28.3072 46.3989 28.7444 46.8361 29.2838 46.8361C29.8231 46.8361 30.2603 46.3989 30.2603 45.8595V34.4758C32.566 34.1976 34.357 32.275 34.357 29.9505V22.0985C34.357 18.1214 31.7459 14.727 28.104 13.4514ZM24.6579 12.9113C23.0222 12.9113 21.6913 11.5805 21.6913 9.94478C21.6913 8.30903 23.0222 6.97827 24.6579 6.97827C26.2936 6.97827 27.6244 8.30903 27.6244 9.94478C27.6244 11.5805 26.2936 12.9113 24.6579 12.9113Z" fill="#BBBBBB"/>
<path d="M43.0521 4.21894L38.3732 3.18711C37.8463 3.0708 37.3253 3.40381 37.2092 3.93037C37.0931 4.45713 37.4258 4.97812 37.9525 5.09434L40.3182 5.61611L36.61 7.96689C36.1545 8.25566 36.0194 8.85908 36.3082 9.31455C36.4941 9.60791 36.8105 9.76836 37.1338 9.76836C37.3126 9.76836 37.4936 9.71924 37.6558 9.61641L41.3828 7.25381L40.8631 9.61016C40.747 10.1368 41.0797 10.6579 41.6065 10.774C41.6773 10.7896 41.748 10.7972 41.8177 10.7972C42.2661 10.7972 42.67 10.4865 42.7705 10.0307L43.7954 5.38281C43.9115 4.85615 43.5788 4.33506 43.0521 4.21894Z" fill="#BBBBBB"/>
<path d="M34.0048 11.7508C34.5441 11.7508 34.9813 11.3136 34.9813 10.7743C34.9813 10.235 34.5441 9.79785 34.0048 9.79785C33.4655 9.79785 33.0283 10.235 33.0283 10.7743C33.0283 11.3136 33.4655 11.7508 34.0048 11.7508Z" fill="#BBBBBB"/>
<path d="M44.94 41.5683L43.915 36.9206C43.7988 36.3938 43.2778 36.0606 42.751 36.1772C42.2243 36.2933 41.8915 36.8144 42.0077 37.3411L42.5273 39.6974L38.8003 37.3347C38.3449 37.0458 37.7414 37.1811 37.4527 37.6367C37.1639 38.0922 37.2991 38.6956 37.7546 38.9843L41.4628 41.3351L39.0971 41.8569C38.5705 41.973 38.2376 42.4942 38.3538 43.0208C38.4543 43.4767 38.8582 43.7873 39.3066 43.7873C39.3762 43.7873 39.447 43.7797 39.5178 43.7641L44.1967 42.7322C44.7234 42.6161 45.0562 42.095 44.94 41.5683Z" fill="#BBBBBB"/>
<path d="M35.1493 37.1532C35.6886 37.1532 36.1258 36.7161 36.1258 36.1768C36.1258 35.6375 35.6886 35.2003 35.1493 35.2003C34.61 35.2003 34.1729 35.6375 34.1729 36.1768C34.1729 36.7161 34.61 37.1532 35.1493 37.1532Z" fill="#BBBBBB"/>
<path d="M49.7106 23.0155L46.3087 19.6416C45.9258 19.2618 45.3074 19.2643 44.9276 19.6472C44.5479 20.0302 44.5504 20.6485 44.9333 21.0283L46.6532 22.7341L42.2628 22.7379C41.7234 22.7384 41.2866 23.176 41.2871 23.7153C41.2876 24.2544 41.7246 24.691 42.2637 24.691C42.2639 24.691 42.2643 24.691 42.2646 24.691L46.6774 24.6872L44.9781 26.4008C44.5983 26.7837 44.601 27.402 44.9839 27.7818C45.1743 27.9707 45.4229 28.0649 45.6715 28.0649C45.9228 28.0649 46.174 27.9685 46.3649 27.7761L49.7164 24.3967C50.0961 24.0136 50.0936 23.3952 49.7106 23.0155Z" fill="#BBBBBB"/>
<path d="M38.5604 24.6943C39.0997 24.6943 39.5369 24.2571 39.5369 23.7178C39.5369 23.1785 39.0997 22.7413 38.5604 22.7413C38.0212 22.7413 37.584 23.1785 37.584 23.7178C37.584 24.2571 38.0212 24.6943 38.5604 24.6943Z" fill="#BBBBBB"/>
<path d="M13.39 7.96696L9.68183 5.61618L12.0476 5.0944C12.5742 4.97829 12.907 4.45719 12.7908 3.93043C12.6747 3.40377 12.1537 3.07067 11.6269 3.18717L6.94805 4.21901C6.42139 4.33512 6.08857 4.85622 6.20478 5.38288L7.22969 10.0307C7.33027 10.4866 7.73418 10.7972 8.18242 10.7972C8.25205 10.7972 8.32285 10.7897 8.39365 10.7741C8.92041 10.658 9.25312 10.1369 9.13701 9.61022L8.61738 7.25387L12.3443 9.61657C12.5065 9.7194 12.6875 9.76852 12.8663 9.76852C13.1896 9.76852 13.5061 9.60797 13.692 9.31471C13.9808 8.85915 13.8456 8.25573 13.39 7.96696Z" fill="#BBBBBB"/>
<path d="M15.995 11.7508C16.5343 11.7508 16.9715 11.3136 16.9715 10.7743C16.9715 10.235 16.5343 9.79785 15.995 9.79785C15.4557 9.79785 15.0186 10.235 15.0186 10.7743C15.0186 11.3136 15.4557 11.7508 15.995 11.7508Z" fill="#BBBBBB"/>
<path d="M12.5465 37.6367C12.2577 37.1812 11.6543 37.046 11.1988 37.3348L7.47184 39.6975L7.99147 37.3412C8.10759 36.8145 7.77487 36.2934 7.24811 36.1773C6.72165 36.0608 6.20036 36.3939 6.08415 36.9206L5.05925 41.5683C4.94313 42.095 5.27585 42.6161 5.80251 42.7322L10.4814 43.7641C10.5523 43.7797 10.623 43.7873 10.6926 43.7873C11.141 43.7873 11.5449 43.4766 11.6454 43.0208C11.7615 42.4942 11.4288 41.9731 10.9021 41.8569L8.5363 41.3351L12.2445 38.9843C12.7001 38.6956 12.8352 38.0922 12.5465 37.6367Z" fill="#BBBBBB"/>
<path d="M14.8505 37.1532C15.3898 37.1532 15.827 36.7161 15.827 36.1768C15.827 35.6375 15.3898 35.2003 14.8505 35.2003C14.3112 35.2003 13.874 35.6375 13.874 36.1768C13.874 36.7161 14.3112 37.1532 14.8505 37.1532Z" fill="#BBBBBB"/>
<path d="M7.73652 22.7379L3.34609 22.7342L5.06601 21.0284C5.44892 20.6486 5.45146 20.0303 5.07168 19.6474C4.69199 19.2646 4.07373 19.2618 3.69062 19.6417L0.288863 23.0155C-0.0940467 23.3953 -0.0965858 24.0136 0.283102 24.3966L3.63457 27.776C3.82558 27.9686 4.07666 28.0649 4.32802 28.0649C4.57656 28.0649 4.82519 27.9705 5.01562 27.7818C5.39863 27.402 5.40117 26.7836 5.02138 26.4007L3.32207 24.6872L7.73486 24.691C7.73515 24.691 7.73545 24.691 7.73574 24.691C8.2747 24.691 8.71181 24.2543 8.7123 23.7153C8.71279 23.176 8.27588 22.7384 7.73652 22.7379Z" fill="#BBBBBB"/>
<path d="M11.4402 24.6942C11.9795 24.6942 12.4166 24.2571 12.4166 23.7178C12.4166 23.1786 11.9795 22.7415 11.4402 22.7415C10.901 22.7415 10.4639 23.1786 10.4639 23.7178C10.4639 24.2571 10.901 24.6942 11.4402 24.6942Z" fill="#BBBBBB"/>
</svg>
