<svg width="50" height="50" viewBox="0 0 50 50" fill="none" xmlns="http://www.w3.org/2000/svg">
<path fill-rule="evenodd" clip-rule="evenodd" d="M41.41 9.78048C41.4096 9.7698 41.4092 9.75912 41.4085 9.74844C41.4054 9.7061 41.4012 9.66452 41.3928 9.62332C41.3928 9.62332 41.3928 9.62332 41.3928 9.62294C41.3844 9.58174 41.3726 9.54092 41.3593 9.50125C41.3558 9.49133 41.3524 9.48141 41.3486 9.47149C41.3345 9.43373 41.3184 9.39672 41.3001 9.36087C41.299 9.35896 41.2982 9.35705 41.2971 9.35514C41.2772 9.31776 41.2544 9.28228 41.2296 9.24757C41.2235 9.2388 41.217 9.2304 41.2105 9.22163C41.1842 9.1873 41.1567 9.15411 41.1258 9.12321L32.2887 0.286102C32.2578 0.255203 32.2246 0.227737 32.1903 0.201416C32.1815 0.194931 32.1727 0.188064 32.164 0.181961C32.1292 0.157165 32.0941 0.134277 32.0571 0.114822C32.0545 0.113296 32.0518 0.112533 32.0495 0.111007C32.0144 0.092697 31.9778 0.0770567 31.9408 0.0629423C31.9305 0.0591277 31.9206 0.0556944 31.9099 0.0522612C31.8702 0.0389099 31.8302 0.0270843 31.7886 0.018692C31.7882 0.018692 31.7878 0.018692 31.7878 0.018692C31.747 0.0106811 31.7054 0.0061035 31.6635 0.00305175C31.6528 0.00267029 31.6421 0.00190734 31.6314 0.00152588C31.6204 0.00114441 31.6093 0 31.5982 0H9.47265C8.93326 0 8.49609 0.437163 8.49609 0.976561V42.7756C8.49609 43.315 8.93326 43.7522 9.47265 43.7522H24.1752V49.0233C24.1752 49.3785 24.3683 49.7058 24.6792 49.8778C24.9904 50.0499 25.37 50.0396 25.671 49.8507L29.3903 47.5173L33.1096 49.8507C33.2679 49.9499 33.4484 49.9999 33.6288 49.9999C33.7913 49.9999 33.9542 49.9595 34.1014 49.8782C34.4123 49.7062 34.6054 49.3789 34.6054 49.0233V43.7522H40.435C40.9744 43.7522 41.4115 43.315 41.4115 42.7756V9.81367C41.4115 9.80261 41.4104 9.79154 41.41 9.78048ZM32.5748 3.33442L38.0775 8.83711H32.5748V3.33442ZM23.6934 30.1631C23.6248 29.9766 23.513 29.6718 23.5103 29.5471C23.5866 29.4525 23.8514 29.285 24.0135 29.1828C24.3614 28.963 24.7558 28.7135 25.0419 28.3237C25.3307 27.9296 25.4482 27.4745 25.552 27.0732C25.5973 26.8978 25.6706 26.6143 25.7331 26.5071C25.7675 26.4999 25.8396 26.4896 25.975 26.4896C26.0837 26.4896 26.2054 26.4957 26.3343 26.5022C26.4824 26.5094 26.6349 26.5171 26.7944 26.5171C27.1461 26.5171 27.4299 26.4774 27.6874 26.3915C28.1372 26.242 28.4969 25.9525 28.8143 25.6969C28.9897 25.5557 29.2835 25.3192 29.3857 25.3047C29.4975 25.3192 29.7908 25.5557 29.9663 25.6969C30.2837 25.9525 30.6438 26.242 31.0936 26.3915C31.351 26.4774 31.6345 26.5171 31.9866 26.5171C32.1456 26.5171 32.2986 26.5094 32.4462 26.5022C32.5752 26.4957 32.6969 26.4896 32.806 26.4896C32.9414 26.4896 33.0131 26.4995 33.0478 26.5071C33.1104 26.6143 33.1836 26.8978 33.2286 27.0732C33.3324 27.4745 33.4503 27.9296 33.739 28.3237C34.0248 28.7135 34.4192 28.9626 34.7675 29.1828C34.9292 29.2854 35.194 29.4525 35.2703 29.5471C35.2676 29.6718 35.1558 29.9766 35.0875 30.1631C34.9422 30.5587 34.7778 31.0073 34.7778 31.5044C34.7778 32.0014 34.9422 32.45 35.0871 32.846C35.1558 33.0325 35.2676 33.3373 35.2703 33.4621C35.194 33.5567 34.9292 33.7238 34.7675 33.8264C34.4192 34.0461 34.0248 34.2956 33.739 34.6854C33.4503 35.0795 33.3324 35.5346 33.2286 35.9359C33.1836 36.111 33.11 36.3948 33.0478 36.502C33.0131 36.5092 32.9414 36.5195 32.806 36.5195C32.6969 36.5195 32.5752 36.5134 32.4462 36.507C32.2986 36.4997 32.1456 36.4921 31.9866 36.4921C31.6345 36.4921 31.351 36.5318 31.0936 36.6176C30.6438 36.7671 30.2837 37.057 29.9663 37.3122C29.7935 37.4519 29.5051 37.6834 29.3903 37.704C29.2755 37.6834 28.9875 37.4519 28.8147 37.3122C28.4969 37.057 28.1372 36.7671 27.6874 36.6176C27.4299 36.5318 27.1461 36.4921 26.7944 36.4921C26.6353 36.4921 26.4824 36.4997 26.3343 36.507C26.2058 36.5134 26.0841 36.5195 25.975 36.5195C25.8396 36.5195 25.7679 36.5092 25.7331 36.502C25.6706 36.3948 25.5973 36.1114 25.552 35.9359C25.4486 35.5346 25.3307 35.0795 25.0419 34.6854C24.7562 34.2956 24.3618 34.0461 24.0135 33.8264C23.8517 33.7241 23.587 33.5567 23.5107 33.4621C23.5134 33.3377 23.6252 33.0325 23.6934 32.846C23.8388 32.4504 24.0032 32.0018 24.0032 31.5048C24.0032 31.0073 23.8384 30.5587 23.6934 30.1631ZM32.6522 47.2579L29.9095 45.5371C29.5921 45.3383 29.1885 45.3383 28.8711 45.5371L26.1284 47.2579V38.4696C26.2321 38.4666 26.334 38.4627 26.4328 38.4578C26.5621 38.4509 26.6842 38.4448 26.7944 38.4448C26.9676 38.4448 27.0416 38.4608 27.0702 38.4704C27.1865 38.5093 27.4101 38.6893 27.5898 38.8339C28.0456 39.2009 28.6129 39.6575 29.3903 39.6575C30.1677 39.6575 30.735 39.2009 31.1908 38.8339C31.3705 38.6893 31.594 38.5093 31.71 38.4708C31.739 38.4612 31.813 38.4452 31.9862 38.4452C32.0964 38.4452 32.2185 38.4513 32.3478 38.4578C32.4466 38.4627 32.5485 38.4669 32.6519 38.4696V47.2579H32.6522ZM34.6054 41.7991V37.6826C34.8957 37.2882 35.017 36.8213 35.1196 36.4246C35.1734 36.2163 35.247 35.9313 35.3141 35.8402C35.3809 35.7486 35.6292 35.5918 35.8104 35.4774C36.2911 35.1737 36.8892 34.7957 37.1269 34.0808C37.3618 33.3755 37.1173 32.7091 36.9209 32.1735C36.8316 31.9305 36.7305 31.6547 36.7305 31.5044C36.7305 31.3541 36.8316 31.0787 36.9209 30.8357C37.1173 30.3001 37.3618 29.6333 37.1269 28.9279C36.8892 28.2134 36.2911 27.8354 35.8104 27.5318C35.6292 27.4173 35.3809 27.2602 35.3141 27.1694C35.247 27.0778 35.1734 26.7929 35.1196 26.5846C34.9792 26.041 34.8045 25.3643 34.2063 24.9256C33.7303 24.5769 33.179 24.5365 32.8056 24.5365C32.6477 24.5365 32.4951 24.5441 32.3478 24.5517C32.2185 24.5582 32.0964 24.5643 31.9866 24.5643C31.813 24.5643 31.739 24.5483 31.7104 24.5388C31.5944 24.5002 31.3709 24.3202 31.1912 24.1752C30.735 23.8086 30.1677 23.352 29.3903 23.352C28.6132 23.352 28.0456 23.8086 27.5898 24.1752C27.4101 24.3198 27.1865 24.5002 27.0706 24.5388C27.042 24.5483 26.9676 24.5643 26.7944 24.5643C26.6845 24.5643 26.5621 24.5582 26.4328 24.5513C26.2855 24.5441 26.1333 24.5365 25.975 24.5365C25.6019 24.5365 25.0507 24.5769 24.575 24.9256C23.9765 25.3643 23.8014 26.041 23.661 26.5846C23.6072 26.7929 23.5336 27.0778 23.4668 27.169C23.3997 27.2602 23.1514 27.4173 22.9702 27.5318C22.4895 27.8354 21.8918 28.2134 21.6537 28.9279C21.4187 29.6337 21.6633 30.3001 21.8597 30.8357C21.949 31.0787 22.0501 31.3541 22.0501 31.5044C22.0501 31.6547 21.949 31.9305 21.8597 32.1735C21.6633 32.7091 21.4187 33.3755 21.6537 34.0812C21.8918 34.7957 22.4899 35.1737 22.9702 35.4774C23.1517 35.5918 23.3997 35.749 23.4668 35.8402C23.5336 35.9313 23.6072 36.2163 23.661 36.4246C23.7636 36.8213 23.8853 37.2886 24.1756 37.6826V41.7991H10.4492V1.95312H30.6217V9.81367C30.6217 10.3531 31.0588 10.7902 31.5982 10.7902H39.4584V41.7991H34.6054Z" fill="#BBBBBB"/>
<path fill-rule="evenodd" clip-rule="evenodd" d="M14.2441 10.7903H26.8258C27.3648 10.7903 27.8023 10.3531 27.8023 9.81372C27.8023 9.27432 27.3648 8.83716 26.8258 8.83716H14.2441C13.7047 8.83716 13.2676 9.27432 13.2676 9.81372C13.2676 10.3531 13.7051 10.7903 14.2441 10.7903Z" fill="#BBBBBB"/>
<path fill-rule="evenodd" clip-rule="evenodd" d="M35.772 13.7665H14.2441C13.7047 13.7665 13.2676 14.2036 13.2676 14.743C13.2676 15.2824 13.7047 15.7196 14.2441 15.7196H35.772C36.3114 15.7196 36.7486 15.2824 36.7486 14.743C36.7486 14.2036 36.3114 13.7665 35.772 13.7665Z" fill="#BBBBBB"/>
<path fill-rule="evenodd" clip-rule="evenodd" d="M31.8658 18.6958H14.2441C13.7047 18.6958 13.2676 19.1333 13.2676 19.6724C13.2676 20.2118 13.7047 20.6489 14.2441 20.6489H31.8658C32.4052 20.6489 32.8423 20.2118 32.8423 19.6724C32.8423 19.1333 32.4052 18.6958 31.8658 18.6958Z" fill="#BBBBBB"/>
<path fill-rule="evenodd" clip-rule="evenodd" d="M35.7725 18.6958C35.2346 18.6958 34.7959 19.1345 34.7959 19.6724C34.7959 20.2102 35.2346 20.6489 35.7725 20.6489C36.3107 20.6489 36.749 20.2102 36.749 19.6724C36.749 19.1345 36.3107 18.6958 35.7725 18.6958Z" fill="#BBBBBB"/>
</svg>
