<svg width="50" height="50" viewBox="0 0 50 50" fill="none" xmlns="http://www.w3.org/2000/svg">
<path d="M16.1546 0.355347C13.8411 0.355347 11.959 2.23748 11.959 4.55085C11.959 6.86433 13.8411 8.74646 16.1546 8.74646C18.468 8.74646 20.3502 6.86433 20.3502 4.55085C20.3502 2.23748 18.4681 0.355347 16.1546 0.355347ZM16.1546 6.79324C14.9181 6.79324 13.9121 5.78728 13.9121 4.55076C13.9121 3.31423 14.9181 2.30837 16.1546 2.30837C17.3911 2.30837 18.3971 3.31433 18.3971 4.55076C18.3971 5.78718 17.3911 6.79324 16.1546 6.79324Z" fill="#BBBBBB"/>
<path d="M35.18 0.355347C32.8665 0.355347 30.9844 2.23748 30.9844 4.55085C30.9844 6.86433 32.8666 8.74646 35.18 8.74646C37.4934 8.74646 39.3756 6.86433 39.3756 4.55085C39.3756 2.23748 37.4935 0.355347 35.18 0.355347ZM35.18 6.79324C33.9435 6.79324 32.9375 5.78728 32.9375 4.55076C32.9375 3.31423 33.9435 2.30837 35.18 2.30837C36.4165 2.30837 37.4225 3.31433 37.4225 4.55076C37.4225 5.78718 36.4165 6.79324 35.18 6.79324Z" fill="#BBBBBB"/>
<path d="M49.0234 47.6915H44.0186L43.9738 26.7724C43.9727 26.2337 43.5357 25.7979 42.9973 25.7979C42.9966 25.7979 42.9958 25.7979 42.9952 25.7979C42.456 25.799 42.0196 26.2372 42.0207 26.7765L42.0653 47.6914H36.0026L35.9579 24.8364C35.9578 24.7778 35.9517 24.7207 35.9416 24.6649V23.5601C35.9416 22.592 35.7953 21.6436 35.5071 20.7301C36.5414 20.1588 37.7042 19.8576 38.911 19.855C38.9164 19.855 38.9214 19.855 38.9268 19.855C40.7727 19.855 42.5078 20.5488 43.8135 21.8097C45.1148 23.0663 45.8336 24.7369 45.8374 26.5152L45.853 30.8767C45.855 31.4148 46.2918 31.8497 46.8295 31.8497C46.8308 31.8497 46.8318 31.8497 46.8331 31.8497C47.3724 31.8478 47.808 31.409 47.8062 30.8696L47.7905 26.5097C47.7856 24.1997 46.8551 22.0315 45.1702 20.4047C44.2562 19.5221 43.1787 18.8583 42.0056 18.4362C42.8513 17.5618 43.3157 16.4141 43.3131 15.195C43.3075 12.634 41.2224 10.5544 38.6626 10.5544C38.6593 10.5544 38.6559 10.5544 38.6525 10.5544C36.0883 10.56 34.0065 12.6506 34.0119 15.2148C34.0146 16.4571 34.5008 17.6239 35.3811 18.5005C35.41 18.5293 35.44 18.5564 35.4695 18.5844C35.2179 18.6884 34.9709 18.8041 34.729 18.9312C33.5373 16.801 31.5918 15.2173 29.2902 14.4411C30.2753 13.5036 30.8912 12.1815 30.8912 10.7175C30.8912 7.88145 28.584 5.57422 25.748 5.57422C22.9121 5.57422 20.6049 7.88145 20.6049 10.7175C20.6049 12.2565 21.2853 13.6388 22.36 14.5821C20.238 15.3968 18.4479 16.9102 17.3227 18.906C16.9808 18.729 16.6286 18.5747 16.2681 18.4437C17.083 17.6057 17.5863 16.463 17.5863 15.2044C17.5863 12.64 15.5001 10.5538 12.9357 10.5538C10.3714 10.5538 8.28516 12.64 8.28516 15.2044C8.28516 16.5309 8.84424 17.7284 9.73809 18.5764C6.55137 19.8852 4.30898 22.9568 4.30898 26.5286V30.89C4.30898 31.4294 4.74629 31.8666 5.28555 31.8666C5.8248 31.8666 6.26211 31.4294 6.26211 30.89V26.5286C6.26211 22.8487 9.36289 19.855 13.1743 19.855C14.3646 19.855 15.514 20.1459 16.5395 20.7006C16.245 21.6231 16.0955 22.5815 16.0955 23.5601V31.1879V31.8572V47.6914H10.2064V26.7831C10.2064 26.2437 9.76914 25.8065 9.22988 25.8065C8.69063 25.8065 8.25332 26.2437 8.25332 26.7831V47.6915H0.976562C0.437305 47.6915 0 48.1287 0 48.6681C0 49.2074 0.437305 49.6446 0.976562 49.6446H9.22998H49.0234C49.5627 49.6446 50 49.2074 50 48.6681C50 48.1287 49.5627 47.6915 49.0234 47.6915ZM38.6567 12.5075C38.6588 12.5075 38.6605 12.5075 38.6625 12.5075C40.1472 12.5075 41.3567 13.7139 41.36 15.1992C41.3615 15.9197 41.0823 16.5977 40.574 17.1083C40.0656 17.6188 39.3888 17.9009 38.6683 17.9024C38.6662 17.9024 38.6644 17.9024 38.6623 17.9024C37.944 17.9024 37.2684 17.6234 36.7592 17.1165C36.2485 16.6081 35.9666 15.9313 35.965 15.2108C35.9619 13.7234 37.1693 12.5107 38.6567 12.5075ZM12.9357 17.902C11.4484 17.902 10.2383 16.6919 10.2383 15.2045C10.2383 13.7171 11.4483 12.507 12.9357 12.507C14.423 12.507 15.6332 13.7171 15.6332 15.2045C15.6332 16.6919 14.423 17.902 12.9357 17.902ZM25.748 7.52744C27.507 7.52744 28.9381 8.9585 28.9381 10.7176C28.9381 12.4767 27.507 13.9077 25.748 13.9077C23.9891 13.9077 22.558 12.4767 22.558 10.7176C22.558 8.9585 23.9891 7.52744 25.748 7.52744ZM20.5688 47.6914H18.0486V35.6662C18.7627 36.1904 19.6284 36.5271 20.5688 36.6036V47.6914ZM30.6363 22.8722C30.0971 22.8722 29.6598 23.3094 29.6598 23.8487V47.6915H26.851V35.9001C26.851 35.3607 26.4137 34.9235 25.8744 34.9235C25.3352 34.9235 24.8979 35.3607 24.8979 35.9001V47.6914H22.5221V23.8486C22.5221 23.3093 22.0848 22.8721 21.5455 22.8721C21.0063 22.8721 20.5689 23.3093 20.5689 23.8486V34.6405C19.1468 34.4488 18.0487 33.2741 18.0487 31.8573V31.188V23.5602C18.0487 22.5606 18.2446 21.5876 18.6307 20.6681C18.6314 20.6662 18.6321 20.6644 18.6329 20.6624C19.8608 17.7454 22.7596 15.8607 26.0187 15.8607C29.2937 15.8607 32.198 17.7582 33.4181 20.6946C33.7967 21.6061 33.9887 22.5701 33.9887 23.5601V31.8572C33.9887 33.2257 32.9643 34.3683 31.6129 34.6175V23.8487C31.6129 23.3095 31.1756 22.8722 30.6363 22.8722ZM31.6128 47.6914V36.5901C32.514 36.4904 33.3412 36.1505 34.026 35.6375L34.0496 47.6914H31.6128Z" fill="#BBBBBB"/>
<path d="M46.8301 35.6903C47.3694 35.6903 47.8066 35.2531 47.8066 34.7137C47.8066 34.1744 47.3694 33.7372 46.8301 33.7372C46.2907 33.7372 45.8535 34.1744 45.8535 34.7137C45.8535 35.2531 46.2907 35.6903 46.8301 35.6903Z" fill="#BBBBBB"/>
<path d="M5.28516 35.6903C5.8245 35.6903 6.26172 35.2531 6.26172 34.7137C6.26172 34.1744 5.8245 33.7372 5.28516 33.7372C4.74582 33.7372 4.30859 34.1744 4.30859 34.7137C4.30859 35.2531 4.74582 35.6903 5.28516 35.6903Z" fill="#BBBBBB"/>
</svg>
