<svg width="50" height="50" viewBox="0 0 50 50" fill="none" xmlns="http://www.w3.org/2000/svg">
<path d="M44.5918 19.708C45.1311 19.708 45.5684 19.2708 45.5684 18.7314C45.5684 18.1921 45.1311 17.7549 44.5918 17.7549C44.0525 17.7549 43.6152 18.1921 43.6152 18.7314C43.6152 19.2708 44.0525 19.708 44.5918 19.708Z" fill="#BBBBBB"/>
<path d="M18.7666 25.3779C19.3059 25.3779 19.7432 24.9407 19.7432 24.4014C19.7432 23.862 19.3059 23.4248 18.7666 23.4248C18.2273 23.4248 17.79 23.862 17.79 24.4014C17.79 24.9407 18.2273 25.3779 18.7666 25.3779Z" fill="#BBBBBB"/>
<path d="M47.0907 7.65753H39.4965C39.0319 4.98575 36.6979 2.94727 33.8953 2.94727C31.0926 2.94727 28.7586 4.98575 28.2941 7.65753H20.6997C19.0954 7.65753 17.7904 8.96271 17.7904 10.5669V15.4849H12.3555C12.8933 14.7287 13.2109 13.8056 13.2109 12.8091C13.2109 10.2567 11.1343 8.18009 8.58195 8.18009C6.02941 8.18009 3.95294 10.2567 3.95294 12.8091C3.95294 14.1261 4.50675 15.3155 5.39259 16.1592C2.22676 17.4631 0 20.5165 0 24.0666V31.3399C0 33.551 1.71944 35.3768 3.9212 35.6108V45.0994H1.47813C0.938869 45.0994 0.501563 45.5367 0.501563 46.076C0.501563 46.6152 0.938869 47.0525 1.47813 47.0525H28.3717C28.3741 47.0525 28.3765 47.0528 28.3789 47.0528C28.3813 47.0528 28.3837 47.0525 28.3861 47.0525H40.0544C40.0568 47.0525 40.0593 47.0528 40.0616 47.0528C40.0639 47.0528 40.0664 47.0525 40.0687 47.0525H48.102C48.6413 47.0525 49.0786 46.6152 49.0786 46.076C49.0786 45.5367 48.6413 45.0994 48.102 45.0994H40.764L37.9657 36.7618H47.0906C48.6949 36.7618 50 35.4567 50 33.8524V10.5669C50.0001 8.96271 48.695 7.65753 47.0907 7.65753ZM33.8953 4.90039C35.6163 4.90039 37.0691 6.0709 37.4995 7.65753H30.2911C30.7214 6.0709 32.1743 4.90039 33.8953 4.90039ZM8.58185 10.1332C10.0572 10.1332 11.2576 11.3336 11.2576 12.8091C11.2576 14.2845 10.0572 15.4849 8.58185 15.4849C7.10636 15.4849 5.90597 14.2845 5.90597 12.8091C5.90597 11.3336 7.10636 10.1332 8.58185 10.1332ZM11.8901 20.5595V45.0994H9.85871V34.1212C9.85871 33.5819 9.42141 33.1446 8.88215 33.1446C8.34289 33.1446 7.90558 33.5819 7.90558 34.1212V45.0994H5.87433V24.3197C5.87433 23.7803 5.43712 23.3431 4.89776 23.3431C4.3585 23.3431 3.9212 23.7804 3.9212 24.3197V33.6382C2.80049 33.4242 1.95313 32.4752 1.95313 31.3399V24.0666C1.95313 20.4117 5.03312 17.438 8.81896 17.438H26.7656C26.3547 18.6825 25.1807 19.5829 23.8004 19.5829H12.8666C12.3274 19.5829 11.8901 20.0202 11.8901 20.5595ZM38.7039 45.0993H29.7366L32.5349 36.7617H35.9055L38.7039 45.0993ZM48.047 33.8524C48.047 34.3797 47.618 34.8087 47.0907 34.8087C47.0907 34.8087 31.8514 34.8087 31.8493 34.8087H20.6997C20.1725 34.8087 19.7435 34.3797 19.7435 33.8524V28.1386C19.7435 27.5994 19.3062 27.1621 18.7669 27.1621C18.2277 27.1621 17.7904 27.5994 17.7904 28.1386V33.8524C17.7904 35.4567 19.0954 36.7618 20.6997 36.7618H30.4747L27.6763 45.0994H13.8432V21.5362H23.8004C26.5986 21.5362 28.8752 19.2597 28.8752 16.4615C28.8752 15.9222 28.4378 15.485 27.8986 15.485H19.7435V10.567C19.7435 10.0398 20.1725 9.61076 20.6997 9.61076H47.0907C47.618 9.61076 48.047 10.0398 48.047 10.567V33.8524Z" fill="#BBBBBB"/>
<path d="M42.2983 21.0243C41.9169 20.643 41.2987 20.643 40.9173 21.0242L36.7342 25.2073L35.2086 23.6817C34.8271 23.3005 34.209 23.3005 33.8274 23.6817L28.4354 29.0737L26.9294 27.5677C26.7462 27.3846 26.4978 27.2816 26.2388 27.2816C25.9799 27.2816 25.7314 27.3846 25.5483 27.5677L22.7469 30.3692C22.3656 30.7505 22.3656 31.3689 22.7469 31.7503C22.9377 31.9409 23.1876 32.0363 23.4375 32.0363C23.6874 32.0363 23.9373 31.9409 24.128 31.7503L26.2388 29.6395L27.7448 31.1455C28.1263 31.5268 28.7444 31.5268 29.126 31.1455L34.518 25.7535L36.0436 27.2791C36.425 27.6604 37.0432 27.6604 37.4247 27.2791L42.2983 22.4055C42.6797 22.0241 42.6797 21.4058 42.2983 21.0243Z" fill="#BBBBBB"/>
</svg>
