<svg width="50" height="50" viewBox="0 0 50 50" fill="none" xmlns="http://www.w3.org/2000/svg">
<path d="M31.006 2.47302H19.1121C17.2749 2.47302 15.7803 3.96765 15.7803 5.80476V7.33572C15.7803 7.87507 16.2175 8.31228 16.7568 8.31228C17.2962 8.31228 17.7334 7.87507 17.7334 7.33572V5.80476C17.7334 5.0446 18.3519 4.42615 19.1121 4.42615H31.006C31.7663 4.42615 32.3848 5.0446 32.3848 5.80476V7.33572C32.3848 7.87507 32.822 8.31228 33.3613 8.31228C33.9007 8.31228 34.3379 7.87507 34.3379 7.33572V5.80476C34.3379 3.96755 32.8433 2.47302 31.006 2.47302Z" fill="#BBBBBB"/>
<path d="M45.2322 10.363H4.76777C2.13877 10.363 0 12.5018 0 15.1308V23.8028C0 24.2357 0.285059 24.6169 0.700293 24.7395L1.29531 24.915V45.3728C1.29531 46.5606 2.26172 47.527 3.44951 47.527H46.5504C47.7383 47.527 48.7046 46.5606 48.7046 45.3728V25.0588L49.2943 24.8885C49.7122 24.7678 50 24.3853 50 23.9503V15.1308C50 12.5018 47.8612 10.363 45.2322 10.363ZM8.71436 45.5738H3.44951C3.33867 45.5738 3.24854 45.4836 3.24854 45.3728V40.108H6.05713C7.52236 40.108 8.71436 41.3 8.71436 42.7652V45.5738ZM46.7514 45.3728C46.7515 45.4836 46.6613 45.5738 46.5504 45.5738H41.2855V42.7652C41.2855 41.2999 42.4776 40.108 43.9428 40.108H46.7514V45.3728ZM46.7516 38.1548H46.7515H43.9429C41.4007 38.1548 39.3325 40.2231 39.3325 42.7652V45.5738H10.6675V42.7652C10.6675 40.223 8.59922 38.1548 6.05713 38.1548H3.24854V25.4911L20.4906 30.5761V33.7143C20.4906 34.2537 20.9278 34.6909 21.4672 34.6909H28.5329C29.0723 34.6909 29.5095 34.2537 29.5095 33.7143V30.6022L46.7516 25.6229V38.1548ZM22.4437 32.7377V29.8367C22.4437 29.8339 22.4437 29.8312 22.4437 29.8286V27.9785H27.5562V32.7377H22.4437ZM48.0469 23.2159L29.5094 28.5693V27.0019C29.5094 26.4625 29.0722 26.0253 28.5328 26.0253H21.4671C20.9277 26.0253 20.4905 26.4625 20.4905 27.0019V28.54L1.95312 23.0727V15.1308C1.95312 13.5788 3.21582 12.3162 4.76777 12.3162H8.71436V15.6968C8.71436 16.2362 9.15156 16.6734 9.69092 16.6734C10.2303 16.6734 10.6675 16.2362 10.6675 15.6968V12.3162H38.9792V15.6968C38.9792 16.2362 39.4164 16.6734 39.9558 16.6734C40.4951 16.6734 40.9323 16.2362 40.9323 15.6968V12.3162H45.2322C46.7843 12.3162 48.0469 13.5789 48.0469 15.1308V23.2159Z" fill="#BBBBBB"/>
<path d="M39.9561 20.4414C40.4954 20.4414 40.9326 20.0042 40.9326 19.4648C40.9326 18.9255 40.4954 18.4883 39.9561 18.4883C39.4167 18.4883 38.9795 18.9255 38.9795 19.4648C38.9795 20.0042 39.4167 20.4414 39.9561 20.4414Z" fill="#BBBBBB"/>
<path d="M9.69043 20.4414C10.2298 20.4414 10.667 20.0042 10.667 19.4648C10.667 18.9255 10.2298 18.4883 9.69043 18.4883C9.15109 18.4883 8.71387 18.9255 8.71387 19.4648C8.71387 20.0042 9.15109 20.4414 9.69043 20.4414Z" fill="#BBBBBB"/>
</svg>
